<svg xmlns="http://www.w3.org/2000/svg" viewBox="0 0 48 48" fill="none">
  <!-- PitchDreams Logo: Soccer ball with HUD aesthetic -->
  <circle cx="24" cy="24" r="22" stroke="currentColor" stroke-width="2" fill="none" opacity="0.3"/>
  <circle cx="24" cy="24" r="18" stroke="currentColor" stroke-width="1.5" fill="none" opacity="0.5"/>
  <!-- Soccer ball pentagon pattern -->
  <path d="M24 6 L30 14 L28 24 L20 24 L18 14 Z" stroke="currentColor" stroke-width="1.5" fill="none"/>
  <path d="M24 42 L30 34 L28 24 L20 24 L18 34 Z" stroke="currentColor" stroke-width="1.5" fill="none"/>
  <path d="M6 24 L14 18 L24 20 L24 28 L14 30 Z" stroke="currentColor" stroke-width="1.5" fill="none"/>
  <path d="M42 24 L34 18 L24 20 L24 28 L34 30 Z" stroke="currentColor" stroke-width="1.5" fill="none"/>
  <!-- Corner brackets -->
  <path d="M4 12 L4 4 L12 4" stroke="currentColor" stroke-width="2" fill="none" opacity="0.6"/>
  <path d="M36 4 L44 4 L44 12" stroke="currentColor" stroke-width="2" fill="none" opacity="0.6"/>
  <path d="M44 36 L44 44 L36 44" stroke="currentColor" stroke-width="2" fill="none" opacity="0.6"/>
  <path d="M12 44 L4 44 L4 36" stroke="currentColor" stroke-width="2" fill="none" opacity="0.6"/>
</svg>
